<svg xmlns="http://www.w3.org/2000/svg" version="1.1" viewBox="0.00 0.00 512.00 512.00"
    width="512.00" height="512.00">
  <defs>
    <linearGradient id="rainbowGrad" x1="0%" y1="0%" x2="100%" y2="100%">
      <stop offset="0%"   stop-color="#FF0000"/>
      <stop offset="16%"  stop-color="#FF8800"/>
      <stop offset="33%"  stop-color="#FFEE00"/>
      <stop offset="50%"  stop-color="#00DD00"/>
      <stop offset="66%"  stop-color="#0088FF"/>
      <stop offset="83%"  stop-color="#AA00FF"/>
      <stop offset="100%" stop-color="#FF44AA"/>
    </linearGradient>
  </defs>
  <path style="fill: url(#rainbowGrad)"
      d="
  M 66.75 243.26
  C 64.36 202.61 63.47 160.98 66.14 119.90
  Q 67.07 105.54 69.56 90.86
  C 71.35 80.37 74.26 67.20 81.13 59.68
  C 88.86 51.20 102.34 59.42 109.45 64.46
  Q 122.61 73.79 137.56 88.26
  Q 154.16 104.32 170.37 120.15
  Q 177.39 127.01 185.78 133.69
  C 189.58 136.71 194.75 140.48 199.81 139.03
  Q 256.12 122.89 312.63 139.17
  C 317.17 140.47 322.43 136.89 326.29 133.81
  Q 334.64 127.18 341.86 120.15
  Q 358.44 104.02 373.87 89.06
  Q 389.67 73.75 403.99 63.72
  Q 409.86 59.61 416.68 57.20
  C 430.17 52.45 435.71 64.65 438.76 74.78
  Q 442.82 88.24 444.57 104.64
  Q 447.71 133.95 447.66 168.99
  Q 447.61 205.59 445.24 243.61
  Q 445.21 244.12 445.44 244.57
  Q 459.30 271.43 466.56 302.09
  C 469.00 312.41 465.64 324.20 461.06 333.82
  C 449.65 357.80 430.14 378.99 409.62 396.13
  Q 372.77 426.90 329.61 443.00
  Q 266.07 466.70 201.80 449.27
  C 162.55 438.62 125.61 417.06 95.28 389.88
  C 77.45 373.90 60.60 354.63 50.57 332.92
  C 46.30 323.66 43.03 312.16 45.33 302.37
  Q 52.57 271.58 66.46 244.63
  Q 66.80 243.98 66.75 243.26
  Z
  M 129.31 310.72 Q 136.38 328.58 152.74 336.68 C 165.31 342.91 181.44 345.53 194.60 340.75 C 211.72 334.54 209.96 316.29 200.74 304.29 C 190.53 291.00 173.63 283.30 157.10 280.73 C 136.41 277.52 120.03 287.25 129.31 310.72 Z
  M 304.10 309.36 C 297.35 321.61 299.56 335.79 313.93 340.88 C 326.42 345.31 342.09 343.01 354.08 337.35 Q 374.66 327.63 380.68 304.95 C 386.50 282.97 365.69 278.03 349.30 281.14 C 331.39 284.54 312.80 293.56 304.10 309.36 Z
  M 244.39 396.99 Q 252.76 401.23 260.59 398.28 Q 271.64 394.13 281.68 382.89 C 290.72 372.77 280.23 368.82 272.04 367.56 Q 253.06 364.63 234.76 367.80 C 228.71 368.85 218.66 372.23 224.67 380.57 Q 231.98 390.72 244.39 396.99 Z" />
</svg>
